<?xml version="1.0" encoding="UTF-8"?>
<svg xmlns="http://www.w3.org/2000/svg" id="Layer_1" data-name="Layer 1" viewBox="0 0 24 24">
  <path fill="#A9A9A9" d="m19.5,4h-4.5v-1c0-1.654-1.346-3-3-3s-3,1.346-3,3v1h-4.5C2.019,4,0,6.019,0,8.5v11c0,2.481,2.019,4.5,4.5,4.5h15c2.481,0,4.5-2.019,4.5-4.5v-11c0-2.481-2.019-4.5-4.5-4.5Zm-9.5-1c0-1.103.897-2,2-2s2,.897,2,2v3c0,.552-.448,1-1,1h-2c-.552,0-1-.448-1-1v-3Zm13,16.5c0,1.93-1.57,3.5-3.5,3.5H4.5c-1.93,0-3.5-1.57-3.5-3.5v-11c0-1.93,1.57-3.5,3.5-3.5h4.5v1c0,1.103.897,2,2,2h2c1.103,0,2-.897,2-2v-1h4.5c1.93,0,3.5,1.57,3.5,3.5v11Zm-14-8.5h-3c-1.103,0-2,.897-2,2v5c0,1.103.897,2,2,2h3c1.103,0,2-.897,2-2v-5c0-1.103-.897-2-2-2Zm1,7c0,.552-.448,1-1,1h-3c-.552,0-1-.448-1-1v-5c0-.552.448-1,1-1h3c.552,0,1,.448,1,1v5Zm10-2.5c0,.276-.224.5-.5.5h-6c-.276,0-.5-.224-.5-.5s.224-.5.5-.5h6c.276,0,.5.224.5.5Zm0-4c0,.276-.224.5-.5.5h-6c-.276,0-.5-.224-.5-.5s.224-.5.5-.5h6c.276,0,.5.224.5.5Zm-2,8c0,.276-.224.5-.5.5h-4c-.276,0-.5-.224-.5-.5s.224-.5.5-.5h4c.276,0,.5.224.5.5Z"/>
</svg>
