<?xml version="1.0" encoding="UTF-8"?>
<svg fill="#A9A9A9" xmlns="http://www.w3.org/2000/svg" id="Layer_1" data-name="Layer 1" viewBox="0 0 24 24">
  <path d="m3.5,20c1.103,0,2-.897,2-2s-.897-2-2-2-2,.897-2,2,.897,2,2,2Zm0-3c.551,0,1,.448,1,1s-.449,1-1,1-1-.448-1-1,.449-1,1-1Zm6.5,1c0,1.103.897,2,2,2s2-.897,2-2-.897-2-2-2-2,.897-2,2Zm3,0c0,.552-.449,1-1,1s-1-.448-1-1,.449-1,1-1,1,.448,1,1Zm-1-14c1.103,0,2-.897,2-2s-.897-2-2-2-2,.897-2,2,.897,2,2,2Zm0-3c.551,0,1,.448,1,1s-.449,1-1,1-1-.448-1-1,.449-1,1-1Zm6.5,17c0,1.103.897,2,2,2s2-.897,2-2-.897-2-2-2-2,.897-2,2Zm3,0c0,.552-.449,1-1,1s-1-.448-1-1,.449-1,1-1,1,.448,1,1ZM3,13.5v-.5c0-1.654,1.346-3,3-3h12c1.654,0,3,1.346,3,3v.5c0,.276-.224.5-.5.5s-.5-.224-.5-.5v-.5c0-1.103-.897-2-2-2h-5.5v2.5c0,.276-.224.5-.5.5s-.5-.224-.5-.5v-2.5h-5.5c-1.103,0-2,.897-2,2v.5c0,.276-.224.5-.5.5s-.5-.224-.5-.5Zm20.677,10.468c-.059.021-.118.032-.177.032-.202,0-.392-.123-.468-.323-.38-1.003-1.397-1.677-2.532-1.677s-2.152.674-2.532,1.677c-.098.259-.386.387-.645.291-.258-.098-.388-.387-.291-.645.527-1.39,1.92-2.323,3.468-2.323s2.941.934,3.468,2.323c.098.258-.032.547-.291.645Zm-16.709-.645c.098.258-.032.547-.291.645-.059.021-.118.032-.177.032-.202,0-.392-.123-.468-.323-.38-1.003-1.397-1.677-2.532-1.677s-2.152.674-2.532,1.677c-.098.259-.386.387-.645.291-.258-.098-.388-.387-.291-.645.527-1.39,1.92-2.323,3.468-2.323s2.941.934,3.468,2.323Zm8.5,0c.098.258-.032.547-.291.645-.059.021-.118.032-.177.032-.202,0-.392-.123-.468-.323-.38-1.003-1.397-1.677-2.532-1.677s-2.152.674-2.532,1.677c-.099.259-.387.387-.645.291-.258-.098-.388-.387-.291-.645.527-1.39,1.92-2.323,3.468-2.323s2.941.934,3.468,2.323ZM8.532,7.323c.527-1.39,1.92-2.323,3.468-2.323s2.941.934,3.468,2.323c.098.258-.032.547-.291.645-.059.021-.118.032-.177.032-.202,0-.392-.123-.468-.323-.38-1.003-1.397-1.677-2.532-1.677s-2.152.674-2.532,1.677c-.099.259-.387.387-.645.291-.258-.098-.388-.387-.291-.645Z"/>
</svg>
